<?xml version="1.0" encoding="UTF-8"?>
<svg id="Capa_2" data-name="Capa 2" xmlns="http://www.w3.org/2000/svg" viewBox="0 0 226 80">
  <defs>
    <style>
      .cls-1 {
        fill: none;
      }

      .cls-2 {
        fill: #ff0;
      }
    </style>
  </defs>
  <g id="Capa_1-2" data-name="Capa 1">
    <g>
      <g>
        <g id="fuufye">
          <g>
            <path class="cls-2" d="M33.85,26.4c.72-2.53,3.66-4.16,6.08-2.99.42-.64.51-1.38,1-2.01,1.56-1.99,3.82-2.28,6.06-1.34.81-3.31,4.74-4.49,7.32-2.27,3.91,3.37,10,9.49,12.27,14.04,1.11,2.23,2.11,6.73,3.72,8.35l1.5,1.5c.66-.58,1.63-2.08,2.63-1.45,1.38,1.62,3.73,3.25,4.94,4.91.28.38.3.83.07,1.24l-19.32,19.38c-.36.39-.85.52-1.34.31l-5.11-5.07c-.58-1.13.7-1.77,1.35-2.52-1.56-1.65-3.76-2.82-5.93-3.42-1.16-.32-2.43-.39-3.61-.68-8.07-1.95-17.07-6.1-13.53-16.1l-11.95-11.94c-2.52-3.43.13-8.31,4.43-7.83.58.06,2.1.55,2.47.93l6.96,6.96ZM39.48,45.84l-5.62-5.62c-.77,1.98-.33,4.69,1.01,6.34,3.49,4.3,9.27,4.91,14.21,6.11,2.83.69,5.58,1.99,7.58,4.16l13.5-13.5-1.7-1.7c-2.43-2.43-3.51-9.33-6.32-12.68s-6.73-6.46-9.77-9.7c-2.19-.92-4.16,1.43-2.66,3.41.83,1.1,2.99,2.59,3.55,3.61.49.9-.75,2.26-1.92,1.34-1.71-1.35-3.87-4.49-5.57-5.48-1.97-1.14-4.36,1.45-3.08,3.2,1.2,1.63,3.48,3.23,4.84,4.85,1.46,1.73-.03,3.18-1.66,1.85-2.26-1.84-4.23-4.56-6.5-6.45-2.2-.89-4.14,1.26-2.97,3.36l6.28,6.4c.57.91-.41,2.11-1.45,1.66l-15.58-15.48c-2.33-2.01-5.42.53-3.97,3.19l19.14,19.19c1.03,1.29-.48,2.52-1.34,1.96ZM73.86,42.92l-17.51,17.51,2.89,2.89,17.51-17.51-2.89-2.89Z"/>
            <path class="cls-2" d="M19.46,28.76c0,.1-.09.47-.15.56-1.38,2.2-3.88-2-4.42-3.3-3.17-7.68,5.94-15.39,13.02-10.82,1.11.71,3.6,2.46,1.55,3.57-.81.44-1.64-.79-2.17-1.17-6.45-4.63-13.79,3.43-9.35,9.14.44.57,1.45,1.25,1.52,2.01Z"/>
          </g>
        </g>
        <g id="fuufye-2" data-name="fuufye">
          <g>
            <path class="cls-2" d="M96.35,26.4c.72-2.53,3.66-4.16,6.08-2.99.42-.64.51-1.38,1-2.01,1.56-1.99,3.82-2.28,6.06-1.34.81-3.31,4.74-4.49,7.32-2.27,3.91,3.37,10,9.49,12.27,14.04,1.11,2.23,2.11,6.73,3.72,8.35l1.5,1.5c.66-.58,1.63-2.08,2.63-1.45,1.38,1.62,3.73,3.25,4.94,4.91.28.38.3.83.07,1.24l-19.32,19.38c-.36.39-.85.52-1.34.31l-5.11-5.07c-.58-1.13.7-1.77,1.35-2.52-1.56-1.65-3.76-2.82-5.93-3.42-1.16-.32-2.43-.39-3.61-.68-8.07-1.95-17.07-6.1-13.53-16.1l-11.95-11.94c-2.52-3.43.13-8.31,4.43-7.83.58.06,2.1.55,2.47.93l6.96,6.96ZM101.98,45.84l-5.62-5.62c-.77,1.98-.33,4.69,1.01,6.34,3.49,4.3,9.27,4.91,14.21,6.11,2.83.69,5.58,1.99,7.58,4.16l13.5-13.5-1.7-1.7c-2.43-2.43-3.51-9.33-6.32-12.68s-6.73-6.46-9.77-9.7c-2.19-.92-4.16,1.43-2.66,3.41.83,1.1,2.99,2.59,3.55,3.61.49.9-.75,2.26-1.92,1.34-1.71-1.35-3.87-4.49-5.57-5.48-1.97-1.14-4.36,1.45-3.08,3.2,1.2,1.63,3.48,3.23,4.84,4.85,1.46,1.73-.03,3.18-1.66,1.85-2.26-1.84-4.23-4.56-6.5-6.45-2.2-.89-4.14,1.26-2.97,3.36l6.28,6.4c.57.91-.41,2.11-1.45,1.66l-15.58-15.48c-2.33-2.01-5.42.53-3.97,3.19l19.14,19.19c1.03,1.29-.48,2.52-1.34,1.96ZM136.36,42.92l-17.51,17.51,2.89,2.89,17.51-17.51-2.89-2.89Z"/>
            <path class="cls-2" d="M81.96,28.76c0,.1-.09.47-.15.56-1.38,2.2-3.88-2-4.42-3.3-3.17-7.68,5.94-15.39,13.02-10.82,1.11.71,3.6,2.46,1.55,3.57-.81.44-1.64-.79-2.17-1.17-6.45-4.63-13.79,3.43-9.35,9.14.44.57,1.45,1.25,1.52,2.01Z"/>
          </g>
        </g>
        <g id="fuufye-3" data-name="fuufye">
          <g>
            <path class="cls-2" d="M167.21,26.4c.72-2.53,3.66-4.16,6.08-2.99.42-.64.51-1.38,1-2.01,1.56-1.99,3.82-2.28,6.06-1.34.81-3.31,4.74-4.49,7.32-2.27,3.91,3.37,10,9.49,12.27,14.04,1.11,2.23,2.11,6.73,3.72,8.35l1.5,1.5c.66-.58,1.63-2.08,2.63-1.45,1.38,1.62,3.73,3.25,4.94,4.91.28.38.3.83.07,1.24l-19.32,19.38c-.36.39-.85.52-1.34.31l-5.11-5.07c-.58-1.13.7-1.77,1.35-2.52-1.56-1.65-3.76-2.82-5.93-3.42-1.16-.32-2.43-.39-3.61-.68-8.07-1.95-17.07-6.1-13.53-16.1l-11.95-11.94c-2.52-3.43.13-8.31,4.43-7.83.58.06,2.1.55,2.47.93l6.96,6.96ZM172.84,45.84l-5.62-5.62c-.77,1.98-.33,4.69,1.01,6.34,3.49,4.3,9.27,4.91,14.21,6.11,2.83.69,5.58,1.99,7.58,4.16l13.5-13.5-1.7-1.7c-2.43-2.43-3.51-9.33-6.32-12.68s-6.73-6.46-9.77-9.7c-2.19-.92-4.16,1.43-2.66,3.41.83,1.1,2.99,2.59,3.55,3.61.49.9-.75,2.26-1.92,1.34-1.71-1.35-3.87-4.49-5.57-5.48-1.97-1.14-4.36,1.45-3.08,3.2,1.2,1.63,3.48,3.23,4.84,4.85,1.46,1.73-.03,3.18-1.66,1.85-2.26-1.84-4.23-4.56-6.5-6.45-2.2-.89-4.14,1.26-2.97,3.36l6.28,6.4c.57.91-.41,2.11-1.45,1.66l-15.58-15.48c-2.33-2.01-5.42.53-3.97,3.19l19.14,19.19c1.03,1.29-.48,2.52-1.34,1.96ZM207.22,42.92l-17.51,17.51,2.89,2.89,17.51-17.51-2.89-2.89Z"/>
            <path class="cls-2" d="M152.82,28.76c0,.1-.09.47-.15.56-1.38,2.2-3.88-2-4.42-3.3-3.17-7.68,5.94-15.39,13.02-10.82,1.11.71,3.6,2.46,1.55,3.57-.81.44-1.64-.79-2.17-1.17-6.45-4.63-13.79,3.43-9.35,9.14.44.57,1.45,1.25,1.52,2.01Z"/>
          </g>
        </g>
      </g>
      <rect class="cls-1" width="226" height="80"/>
    </g>
  </g>
</svg>