<?xml version="1.0" encoding="UTF-8"?>
<svg id="Capa_2" data-name="Capa 2" xmlns="http://www.w3.org/2000/svg" viewBox="0 0 58 70">
  <defs>
    <style>
      .cls-1 {
        stroke: #ff0;
        stroke-miterlimit: 10;
      }

      .cls-1, .cls-2 {
        fill: none;
      }
    </style>
  </defs>
  <g id="Capa_1-2" data-name="Capa 1">
    <g>
      <path class="cls-1" d="M32.6,39.71l9.61-9.61c.54-.54.54-1.43,0-1.97l-1.64-1.64c-.54-.54-1.43-.54-1.97,0l-8.63,8.63c-.54.54-1.43.54-1.97,0l-8.63-8.63c-.54-.54-1.43-.54-1.97,0l-1.64,1.64c-.54.54-.54,1.43,0,1.97l9.61,9.61,2.62,2.62c.54.54,1.43.54,1.97,0l2.62-2.62Z"/>
      <path class="cls-1" d="M32.6,58.69l9.61-9.61c.54-.54.54-1.43,0-1.97l-1.64-1.64c-.54-.54-1.43-.54-1.97,0l-8.63,8.63c-.54.54-1.43.54-1.97,0l-8.63-8.63c-.54-.54-1.43-.54-1.97,0l-1.64,1.64c-.54.54-.54,1.43,0,1.97l9.61,9.61,2.62,2.62c.54.54,1.43.54,1.97,0l2.62-2.62Z"/>
      <path class="cls-1" d="M32.6,21.91l9.61-9.61c.54-.54.54-1.43,0-1.97l-1.64-1.64c-.54-.54-1.43-.54-1.97,0l-8.63,8.63c-.54.54-1.43.54-1.97,0l-8.63-8.63c-.54-.54-1.43-.54-1.97,0l-1.64,1.64c-.54.54-.54,1.43,0,1.97l9.61,9.61,2.62,2.62c.54.54,1.43.54,1.97,0l2.62-2.62Z"/>
    </g>
    <rect class="cls-2" width="58" height="70"/>
  </g>
</svg>