<?xml version="1.0" encoding="UTF-8"?>
<svg id="Capa_2" data-name="Capa 2" xmlns="http://www.w3.org/2000/svg" viewBox="0 0 75 45">
  <defs>
    <style>
      .cls-1 {
        stroke: #ff0;
        stroke-miterlimit: 10;
      }

      .cls-1, .cls-2 {
        fill: none;
      }
    </style>
  </defs>
  <g id="Capa_1-2" data-name="Capa 1">
    <g>
      <g>
        <path class="cls-1" d="M42.21,18.9l-9.61-9.61c-.54-.54-1.43-.54-1.97,0l-1.64,1.64c-.54.54-.54,1.43,0,1.97l8.63,8.63c.54.54.54,1.43,0,1.97l-8.63,8.63c-.54.54-.54,1.43,0,1.97l1.64,1.64c.54.54,1.43.54,1.97,0l9.61-9.61,2.62-2.62c.54-.54.54-1.43,0-1.97l-2.62-2.62Z"/>
        <path class="cls-1" d="M61.19,18.9l-9.61-9.61c-.54-.54-1.43-.54-1.97,0l-1.64,1.64c-.54.54-.54,1.43,0,1.97l8.63,8.63c.54.54.54,1.43,0,1.97l-8.63,8.63c-.54.54-.54,1.43,0,1.97l1.64,1.64c.54.54,1.43.54,1.97,0l9.61-9.61,2.62-2.62c.54-.54.54-1.43,0-1.97l-2.62-2.62Z"/>
        <path class="cls-1" d="M24.41,18.9l-9.61-9.61c-.54-.54-1.43-.54-1.97,0l-1.64,1.64c-.54.54-.54,1.43,0,1.97l8.63,8.63c.54.54.54,1.43,0,1.97l-8.63,8.63c-.54.54-.54,1.43,0,1.97l1.64,1.64c.54.54,1.43.54,1.97,0l9.61-9.61,2.62-2.62c.54-.54.54-1.43,0-1.97l-2.62-2.62Z"/>
      </g>
      <rect class="cls-2" width="75" height="45"/>
    </g>
  </g>
</svg>