<?xml version="1.0" encoding="UTF-8"?>
<svg id="Capa_2" data-name="Capa 2" xmlns="http://www.w3.org/2000/svg" viewBox="0 0 225 160">
  <defs>
    <style>
      .cls-1 {
        fill: none;
      }

      .cls-2 {
        fill: #ff0;
      }
    </style>
  </defs>
  <g id="Capa_1-2" data-name="Capa 1">
    <g>
      <g id="_0556cF" data-name="0556cF">
        <g>
          <path class="cls-2" d="M103.41,107.91v22.09h-18.53l-5.01-37.56c-.45-1.47-2.05-1.63-2.98-.5l-5.16,38.06h-18.53v-42.46h50.21v14.76c0,1.21,2.97,1.88,3.24-.2l-.21-25.03c-.09-.15-.89-.74-.98-.74h-25.53v-18.97l5.87,4.36,1.67.05,14.24-14.21c.43-.73.26-1.71-.33-2.28-6.53-5.86-12.39-13.26-18.96-18.97-2.19-1.9-4.59-3.19-7.54-3.45-13.93.75-28.87-.97-42.68,0-2.77.19-5.23,1.25-7.32,3.02-6.72,5.68-12.71,13.53-19.39,19.4-.93,1.23-.78,1.74.12,2.91.72.93,12.2,12.39,13.04,13.04.67.51,1.01.78,1.92.64,1.35-.2,4.83-3.85,6.37-4.52v9.41c0,.88.71,1.59,1.59,1.59h0c.89,0,1.61-.73,1.59-1.61l-.16-13.61c-.56-.62-1.3-.99-2.11-.58l-7.04,5.25-.62.17-11.35-11.29,18.52-18.54c2.37-2.08,5.39-2.17,8.4-2.04,1.18,12.81,15.09,20.22,26.43,13.83,4.98-2.81,8.34-8.13,8.92-13.82,2.57-.1,5.15-.09,7.38,1.33l19.54,19.25-11.52,11.52-7.64-5.72c-.98-.41-2.38.49-2.38,1.52v22.31h-25.32c-.77,0-1.4.63-1.4,1.4v13.47h-19.61v-17.97c0-.89-.72-1.61-1.61-1.61h0c-.89,0-1.61.72-1.61,1.61v19.59c-.16.4.76,1.61.96,1.61h21.87v37.4c0,.41.99,1.6,1.61,1.4,6.94-.48,14.72.63,21.56,0,.83-.08,1.38-.24,1.72-1.08l3.65-26.52,3.86,26.96.76.53h22.65c.52-.26,1.08-.65,1.08-1.29l-.02-23.93c-.33-1.78-3.23-1.23-3.23,0ZM60.73,36.98c-9.21,5.33-20.39-.51-21.75-10.87h28.66c-.16,4.39-3.16,8.7-6.91,10.87ZM95.01,79.56h8.4v4.74h-8.4v-4.74ZM64.84,79.56h26.61l.32.32v4.42h-26.93v-4.74ZM53.2,79.56h8.08l.32.32v4.1l-.32.32h-8.08v-4.74Z"/>
          <path class="cls-2" d="M49.91,27.88c.8-.18,6.23-.18,7.02,0,1.55.35,1.29,2.9-.17,3.18-.78.15-6.1.13-6.84-.04-1.46-.34-1.52-2.8,0-3.14Z"/>
        </g>
      </g>
      <g id="_0556cF-2" data-name="0556cF">
        <g>
          <path class="cls-2" d="M210.92,107.91v22.09h-18.53l-5.01-37.56c-.45-1.47-2.05-1.63-2.98-.5l-5.16,38.06h-18.53v-42.46h50.21v14.76c0,1.21,2.97,1.88,3.24-.2l-.21-25.03c-.09-.15-.89-.74-.98-.74h-25.53v-18.97l5.87,4.36,1.67.05,14.24-14.21c.43-.73.26-1.71-.33-2.28-6.53-5.86-12.39-13.26-18.96-18.97-2.19-1.9-4.59-3.19-7.54-3.45-13.93.75-28.87-.97-42.68,0-2.77.19-5.23,1.25-7.32,3.02-6.72,5.68-12.71,13.53-19.39,19.4-.93,1.23-.78,1.74.12,2.91.72.93,12.2,12.39,13.04,13.04.67.51,1.01.78,1.92.64,1.35-.2,4.83-3.85,6.37-4.52v9.41c0,.88.71,1.59,1.59,1.59h0c.89,0,1.61-.73,1.59-1.61l-.16-13.61c-.56-.62-1.3-.99-2.11-.58l-7.04,5.25-.62.17-11.35-11.29,18.52-18.54c2.37-2.08,5.39-2.17,8.4-2.04,1.18,12.81,15.09,20.22,26.43,13.83,4.98-2.81,8.34-8.13,8.92-13.82,2.57-.1,5.15-.09,7.38,1.33l19.54,19.25-11.52,11.52-7.64-5.72c-.98-.41-2.38.49-2.38,1.52v22.31h-25.32c-.77,0-1.4.63-1.4,1.4v13.47h-19.61v-17.97c0-.89-.72-1.61-1.61-1.61h0c-.89,0-1.61.72-1.61,1.61v19.59c-.16.4.76,1.61.96,1.61h21.87v37.4c0,.41.99,1.6,1.61,1.4,6.94-.48,14.72.63,21.56,0,.83-.08,1.38-.24,1.72-1.08l3.65-26.52,3.86,26.96.76.53h22.65c.52-.26,1.08-.65,1.08-1.29l-.02-23.93c-.33-1.78-3.23-1.23-3.23,0ZM168.24,36.98c-9.21,5.33-20.39-.51-21.75-10.87h28.66c-.16,4.39-3.16,8.7-6.91,10.87ZM202.51,79.56h8.4v4.74h-8.4v-4.74ZM172.35,79.56h26.61l.32.32v4.42h-26.93v-4.74ZM160.71,79.56h8.08l.32.32v4.1l-.32.32h-8.08v-4.74Z"/>
          <path class="cls-2" d="M157.42,27.88c.8-.18,6.23-.18,7.02,0,1.55.35,1.29,2.9-.17,3.18-.78.15-6.1.13-6.84-.04-1.46-.34-1.52-2.8,0-3.14Z"/>
        </g>
      </g>
    </g>
    <rect class="cls-1" width="225" height="160"/>
  </g>
</svg>