<?xml version="1.0" encoding="UTF-8"?>
<svg id="Capa_2" data-name="Capa 2" xmlns="http://www.w3.org/2000/svg" viewBox="0 0 160 160">
  <defs>
    <style>
      .cls-1 {
        fill: none;
      }

      .cls-2 {
        fill: #ff0;
      }
    </style>
  </defs>
  <g id="Capa_1-2" data-name="Capa 1">
    <g id="XQfXqM">
      <path class="cls-2" d="M52.63,14.63l54.29-.07c5.57.56,10.64,4.5,11.12,10.33v110.63c-.74,4.81-4.38,8.2-8.94,9.46-18.6.86-37.37.14-56.03.37-5.54-.63-10.69-4.45-11.12-10.33V24.4c.8-5.43,5.4-9.07,10.67-9.77ZM64.94,18.65c-6.54.56-16.58-2.5-18.87,6.03l.15,111.19c1.02,3.21,3.86,4.99,7.1,5.41h52.85c3.48-.24,6.49-2.01,7.6-5.41l.18-110.96c-.11-2.84-4.13-6.26-6.76-6.26h-13.4v4.73c0,1.07-1.23,1.59-2.16,1.67-7.96.71-16.96-.57-25.04,0-.54.19-1.65-1.11-1.65-1.42v-4.98Z"/>
    </g>
    <rect class="cls-1" width="160" height="160"/>
  </g>
</svg>