<?xml version="1.0" encoding="UTF-8"?>
<svg id="Capa_2" data-name="Capa 2" xmlns="http://www.w3.org/2000/svg" viewBox="0 0 296 92">
  <defs>
    <style>
      .cls-1 {
        fill: #fff;
      }

      .cls-2 {
        fill: none;
      }
    </style>
  </defs>
  <g id="Capa_1-2" data-name="Capa 1">
    <g id="Grupo_2" data-name="Grupo 2">
      <g id="Grupo_1" data-name="Grupo 1">
        <path id="Trazado_1" data-name="Trazado 1" class="cls-1" d="M43.26,52.98l14.21,20.47-13.69-.03-12.79-19.85h-5.49s-.05,19.81-.05,19.81l-11.26-.03.12-55.14,22.95.05c12.83.03,17.74,8.75,17.71,17.7-.02,7.48-3.67,15.03-12.16,17.02h.43ZM25.57,27.65l-.04,16.58,8.7.02c5.35.01,9.77-1.29,9.78-8.31.02-7.17-4.4-8.26-9.75-8.27l-8.7-.02Z"/>
        <rect id="Rectángulo_2" data-name="Rectángulo 2" class="cls-1" x="61.25" y="40.31" width="55.06" height="11.19" transform="translate(42.68 134.59) rotate(-89.87)"/>
        <path id="Trazado_2" data-name="Trazado 2" class="cls-1" d="M130.91,63.28l-.02,10.26-10.84-.02.12-55.3,37.14.08-.02,10.18-26.3-.06-.03,12.42,23.24.05-.02,10.72-23.24-.05-.02,11.72Z"/>
        <path id="Trazado_3" data-name="Trazado 3" class="cls-1" d="M179.85,73.25l.12-54.91,10.98.03-.1,44.73,26.09.06-.02,10.18-37.07-.08Z"/>
        <path id="Trazado_4" data-name="Trazado 4" class="cls-1" d="M253.09,51.82l-.03,11.72,28.72.06-.02,10.18-39.56-.09.12-55.22,37.14.08-.02,10.18-26.3-.06-.03,12.42,23.24.05-.02,10.72-23.23-.05Z"/>
      </g>
    </g>
    <rect class="cls-2" width="296" height="92"/>
  </g>
</svg>